<?xml version="1.0" encoding="windows-1252"?>
<!-- Generator: Adobe Illustrator 16.0.0, SVG Export Plug-In . SVG Version: 6.00 Build 0)  -->
<!DOCTYPE svg PUBLIC "-//W3C//DTD SVG 1.1//EN" "http://www.w3.org/Graphics/SVG/1.1/DTD/svg11.dtd">
<svg version="1.1" id="Capa_1" xmlns="http://www.w3.org/2000/svg" xmlns:xlink="http://www.w3.org/1999/xlink" x="0px" y="0px" width="527.305px" height="527.305px" viewBox="0 0 527.305 527.305" style="enable-background:new 0 0 527.305 527.305;" xml:space="preserve">
<g>
	<g id="Layer_2_22_">
		<path d="M298.483,476.504c-5.394-1.358-11.418-3.815-17.71-6.513c-5.097-2.18-12.785-5.46-15.204-5.564    c-2.38,0.095-10.155,3.385-15.309,5.564c-6.245,2.64-12.211,5.088-17.566,6.484c3.528,12.469,16.878,21.783,32.904,21.783    C281.605,498.259,294.945,488.964,298.483,476.504z"/>
		<path d="M2.543,150.308c6.302,27.148,35.181,65.197,60.865,90.031c5.738-40.507,27.903-76.739,60.741-103.782    c-2.094-5.25-4.476-10.452-7.411-15.31c-10.126-16.734-36.098-37.389-56.964-53.99C42.247,53.315,32.13,45.111,27.98,38.522    c-4.839-7.679-9.381-9.4-10.586-9.4c-0.344,0.249-1.625,2.314-1.855,7.401c-0.66,14.621-4.227,28.908-7.679,42.726    C2.295,101.501-3.443,124.508,2.543,150.308z"/>
		<path d="M524.761,150.308c5.986-25.799,0.249-48.807-5.308-71.068c-3.452-13.818-7.019-28.104-7.679-42.725    c-0.229-5.087-1.511-7.153-1.94-7.468c-1.129,0.067-5.661,1.797-10.5,9.467c-4.159,6.588-14.276,14.793-31.805,28.735    c-20.865,16.601-46.828,37.255-56.964,53.99c-2.257,3.739-4.16,7.679-5.91,11.685c33.899,26.25,57.309,61.927,64.499,102.156    C493.396,210.37,518.89,175.62,524.761,150.308z"/>
		<path d="M340.224,403.265c61.181-22.013,105.369-70.629,111.537-128.243c0.439-4.111,0.717-8.271,0.755-12.469    c0-0.459,0.087-0.909,0.087-1.368c0-3.404-0.354-6.731-0.612-10.078c-3.013-38.652-22.931-73.526-53.923-99.316    c-2.62-2.18-5.451-4.169-8.215-6.225c-2.677-1.979-5.393-3.921-8.214-5.776c-31.651-20.808-71.509-33.345-114.874-33.345    c-45.728,0-87.592,13.885-120,36.777c-2.821,1.989-5.527,4.083-8.205,6.206c-2.812,2.238-5.489,4.562-8.119,6.942    c-29.251,26.354-47.593,61.095-49.199,99.402c-0.076,1.808-0.325,3.576-0.325,5.403c0,2.026,0.268,3.997,0.364,5.995    c0.182,4.007,0.439,8.004,0.985,11.935c7.688,55.156,50.327,101.496,108.964,123.327c9.687-25.073,39.35-43.385,74.357-43.385    C300.988,359.048,330.871,377.771,340.224,403.265z M171.13,358.254c-30.371,0-54.984-24.614-54.984-54.984    s24.614-54.984,54.984-54.984s54.984,24.614,54.984,54.984C226.115,333.631,201.501,358.254,171.13,358.254z M305.799,303.27    c0-31.25,25.331-56.581,56.581-56.581s56.581,25.331,56.581,56.581s-25.331,56.581-56.581,56.581S305.799,334.51,305.799,303.27z"/>
		<path d="M324.072,427.993c0.077-2.438,0.115-5.039,0.115-7.841c0-0.641-0.096-1.253-0.134-1.884    c-0.201-3.213-0.89-6.34-2.057-9.333c-6.875-17.71-29.528-30.763-56.409-30.763c-26.564,0-49.017,12.737-56.179,30.122    c-1.234,2.983-1.97,6.119-2.238,9.342c-0.067,0.842-0.182,1.664-0.182,2.516c0,2.62,0.029,5.029,0.096,7.324    c0.497,17.834,3.5,26.297,18.341,31.078c2.257-0.134,7.076-1.94,11.705-3.825c1.999-0.812,3.968-1.635,5.67-2.352    c8.979-3.797,16.734-7.076,22.778-7.076c6.071,0,13.77,3.289,22.691,7.104c1.75,0.746,3.777,1.597,5.833,2.438    c4.667,1.912,9.477,3.71,11.532,3.71C320.295,453.927,323.509,445.302,324.072,427.993z M289.342,414.663    c-1.233,4.112-4.313,7.659-8.511,10.223c-4.188,2.553-9.438,4.149-15.243,4.149c-5.88,0-11.197-1.635-15.414-4.255    c-4.217-2.62-7.315-6.234-8.462-10.433c-0.335-1.215-0.507-2.468-0.507-3.749c0-10.184,10.92-18.445,24.383-18.445    c13.464,0,24.385,8.262,24.385,18.445C289.973,411.995,289.733,413.344,289.342,414.663z"/>
		<circle cx="190.657" cy="307.946" r="19.527"/>
		<circle cx="343.656" cy="307.946" r="19.527"/>
	</g>
</g>
<g>
</g>
<g>
</g>
<g>
</g>
<g>
</g>
<g>
</g>
<g>
</g>
<g>
</g>
<g>
</g>
<g>
</g>
<g>
</g>
<g>
</g>
<g>
</g>
<g>
</g>
<g>
</g>
<g>
</g>
</svg>